# File created by Blade
# Date/Time:  Wed Jan 21 14:28:11 2015
# Frame Rate: 120.000 fps
#------------------------------------------------------
:FULLY-SPECIFIED
:DEGREES
601
root 18.708296 35.467801 -21.451551 -171.100984 -3.925306 -178.939060
Spine -18.332837 -0.786550 1.091470
Head 8.395932 -1.639051 -0.756312
LeftShoulder -12.146158 -38.142235 23.857154
LeftArm 6.771198 8.894469 -3.995140
LeftForeArm 19.749502 -0.000000 -1.787517
LeftHand -8.045102 -0.000000 -7.467178
LeftHandThumb1 -26.253704 0.000000 33.147579
RightShoulder -11.940464 0.992894 -14.170971
RightArm 8.962686 34.322490 5.453926
RightForeArm -42.715291 -0.000000 4.432109
RightHand -6.820030 -0.000000 14.748095
RightHandThumb1 -24.326973 -0.000000 -32.862282
LeftUpLeg -0.361694 8.189029 1.909669
LeftLeg -7.060183 -0.000000 0.000000
LeftFoot -19.803315 26.868104 -12.048483
LeftToeBase 27.230716 -0.000000 -0.000000
RightUpLeg -1.394508 -13.207459 -0.150233
RightLeg -4.091573 -0.000000 0.000000
RightFoot -20.256695 -22.557410 16.490269
RightToeBase 25.253531 -0.000000 -0.000000
602
root 18.709008 35.467448 -21.454120 -171.073003 -3.925506 -178.938755
Spine -18.354788 -0.786304 1.101969
Head 8.328135 -1.655462 -0.744062
LeftShoulder -12.125859 -38.171099 23.854093
LeftArm 6.744174 8.978905 -4.017083
LeftForeArm 19.693958 -0.000000 -1.762895
LeftHand -8.078988 0.000000 -7.533772
LeftHandThumb1 -26.253704 0.000000 33.147579
RightShoulder -11.935605 0.979669 -14.167664
RightArm 9.019754 34.366807 5.497319
RightForeArm -42.727278 -0.000000 4.378663
RightHand -6.773834 -0.000000 14.786543
RightHandThumb1 -24.326973 -0.000000 -32.862282
LeftUpLeg -0.380980 8.189140 1.908038
LeftLeg -7.068412 -0.000000 0.000000
LeftFoot -19.809691 26.873062 -12.042875
LeftToeBase 27.296413 -0.000000 -0.000000
RightUpLeg -1.408958 -13.226501 -0.141592
RightLeg -4.109369 -0.000000 0.000000
RightFoot -20.240892 -22.524727 16.570178
RightToeBase 25.102361 -0.000000 -0.000000
603
root 18.709762 35.466804 -21.457399 -171.045385 -3.919011 -178.939789
Spine -18.380819 -0.767675 1.105081
Head 8.267314 -1.678684 -0.732800
LeftShoulder -12.107339 -38.166343 23.839586
LeftArm 6.757270 9.010812 -4.047580
LeftForeArm 19.653538 0.000000 -1.768467
LeftHand -8.085021 -0.000000 -7.578563
LeftHandThumb1 -26.253704 0.000000 33.147579
RightShoulder -11.919335 0.985122 -14.170032
RightArm 8.998853 34.366720 5.507247
RightForeArm -42.743774 -0.000000 4.392645
RightHand -6.727111 -0.000000 14.825342
RightHandThumb1 -24.326973 -0.000000 -32.862282
LeftUpLeg -0.394291 8.193964 1.904697
LeftLeg -7.083914 -0.000000 0.000000
LeftFoot -19.809199 26.864904 -12.068800
LeftToeBase 27.267027 -0.000000 -0.000000
RightUpLeg -1.418557 -13.220592 -0.138067
RightLeg -4.136412 -0.000000 0.000000
RightFoot -20.241803 -22.535327 16.476962
RightToeBase 25.255420 -0.000000 -0.000000
604
root 18.711176 35.466150 -21.460176 -171.013000 -3.904644 -178.939134
Spine -18.409002 -0.768227 1.109908
Head 8.195708 -1.695381 -0.696873
LeftShoulder -12.107699 -38.199094 23.851718
LeftArm 6.751248 9.064921 -4.065809
LeftForeArm 19.598480 -0.000000 -1.794456
LeftHand -8.059623 -0.000000 -7.576211
LeftHandThumb1 -26.253704 0.000000 33.147579
RightShoulder -11.892042 0.987769 -14.158438
RightArm 9.014268 34.369185 5.531626
RightForeArm -42.691385 -0.000000 4.389172
RightHand -6.833887 -0.000000 14.824513
RightHandThumb1 -24.326973 -0.000000 -32.862282
LeftUpLeg -0.406257 8.190260 1.902855
LeftLeg -7.112220 -0.000000 0.000000
LeftFoot -19.793553 26.894024 -12.063892
LeftToeBase 27.226918 -0.000000 -0.000000
RightUpLeg -1.441537 -13.210704 -0.130460
RightLeg -4.152079 -0.000000 0.000000
RightFoot -20.229732 -22.535159 16.466210
RightToeBase 25.295969 -0.000000 -0.000000
605
root 18.711803 35.465973 -21.463381 -170.986194 -3.888219 -178.941032
Spine -18.435525 -0.751512 1.108444
Head 8.153919 -1.719869 -0.683759
LeftShoulder -12.099776 -38.207443 23.842146
LeftArm 6.761469 9.064020 -4.087762
LeftForeArm 19.574264 0.000000 -1.804663
LeftHand -8.080534 -0.000000 -7.592618
LeftHandThumb1 -26.253704 0.000000 33.147579
RightShoulder -11.873198 0.980463 -14.152500
RightArm 9.023919 34.463455 5.570662
RightForeArm -42.693359 0.000000 4.373966
RightHand -6.811597 0.000000 14.778117
RightHandThumb1 -24.326973 -0.000000 -32.862282
LeftUpLeg -0.416938 8.204967 1.897045
LeftLeg -7.130231 -0.000000 0.000000
LeftFoot -19.796631 26.898252 -12.083462
LeftToeBase 27.225965 -0.000000 -0.000000
RightUpLeg -1.457243 -13.210935 -0.126389
RightLeg -4.170965 -0.000000 0.000000
RightFoot -20.207415 -22.536709 16.443545
RightToeBase 25.225751 -0.000000 -0.000000
606
root 18.713017 35.465515 -21.465707 -170.949224 -3.880132 -178.941861
Spine -18.475412 -0.754880 1.112481
Head 8.125914 -1.709486 -0.662501
LeftShoulder -12.081703 -38.204588 23.833197
LeftArm 6.744060 9.027768 -4.101084
LeftForeArm 19.590852 -0.000000 -1.811408
LeftHand -8.047677 0.000000 -7.638895
LeftHandThumb1 -26.253704 0.000000 33.147579
RightShoulder -11.851350 0.970169 -14.143881
RightArm 9.037786 34.507357 5.603147
RightForeArm -42.648203 -0.000000 4.372790
RightHand -6.782514 -0.000000 14.760391
RightHandThumb1 -24.326973 -0.000000 -32.862282
LeftUpLeg -0.446955 8.211361 1.891880
LeftLeg -7.135123 -0.000000 0.000000
LeftFoot -19.794919 26.907104 -12.076694
LeftToeBase 27.238995 -0.000000 -0.000000
RightUpLeg -1.481083 -13.212902 -0.117596
RightLeg -4.194390 -0.000000 0.000000
RightFoot -20.200053 -22.537283 16.440119
RightToeBase 25.245090 -0.000000 -0.000000
607
root 18.714314 35.465190 -21.468551 -170.921062 -3.866136 -178.944267
Spine -18.501033 -0.748046 1.109110
Head 8.085674 -1.731998 -0.645222
LeftShoulder -12.083881 -38.186734 23.829092
LeftArm 6.755098 8.998432 -4.115041
LeftForeArm 19.573153 0.000000 -1.808449
LeftHand -7.988959 0.000000 -7.703389
LeftHandThumb1 -26.253704 0.000000 33.147579
RightShoulder -11.839389 0.948432 -14.136903
RightArm 9.034414 34.553536 5.630239
RightForeArm -42.609208 -0.000000 4.397262
RightHand -6.715415 -0.000000 14.796323
RightHandThumb1 -24.326973 -0.000000 -32.862282
LeftUpLeg -0.463387 8.228164 1.886011
LeftLeg -7.145365 -0.000000 0.000000
LeftFoot -19.791371 26.902037 -12.079261
LeftToeBase 27.229762 -0.000000 -0.000000
RightUpLeg -1.497065 -13.216770 -0.112314
RightLeg -4.213185 -0.000000 0.000000
RightFoot -20.190616 -22.513566 16.417818
RightToeBase 25.252514 -0.000000 -0.000000
608
root 18.715066 35.465085 -21.471480 -170.894016 -3.863577 -178.951415
Spine -18.530401 -0.765226 1.108469
Head 8.052321 -1.754038 -0.625576
LeftShoulder -12.092526 -38.152402 23.826236
LeftArm 6.767149 8.943028 -4.130040
LeftForeArm 19.596459 -0.000000 -1.814263
LeftHand -7.979105 -0.000000 -7.762377
LeftHandThumb1 -26.253704 0.000000 33.147579
RightShoulder -11.797550 0.992452 -14.128602
RightArm 8.997832 34.532390 5.622061
RightForeArm -42.583316 -0.000000 4.431167
RightHand -6.712377 -0.000000 14.841348
RightHandThumb1 -24.326973 -0.000000 -32.862282
LeftUpLeg -0.483143 8.225278 1.876642
LeftLeg -7.149334 -0.000000 0.000000
LeftFoot -19.790334 26.906866 -12.097964
LeftToeBase 27.211041 -0.000000 -0.000000
RightUpLeg -1.507085 -13.222473 -0.112425
RightLeg -4.238206 -0.000000 0.000000
RightFoot -20.180525 -22.515034 16.415833
RightToeBase 25.230387 -0.000000 -0.000000
609
root 18.716446 35.465421 -21.473500 -170.855392 -3.848127 -178.952616
Spine -18.564611 -0.740645 1.101806
Head 8.012987 -1.790942 -0.606753
LeftShoulder -12.075748 -38.142122 23.807235
LeftArm 6.778362 8.938294 -4.140462
LeftForeArm 19.542920 -0.000000 -1.807862
LeftHand -8.011267 -0.000000 -7.787449
LeftHandThumb1 -26.253704 0.000000 33.147579
RightShoulder -11.811680 0.984544 -14.114914
RightArm 9.027036 34.601047 5.665834
RightForeArm -42.712345 -0.000000 4.425973
RightHand -6.684552 -0.000000 14.872854
RightHandThumb1 -24.326973 -0.000000 -32.862282
LeftUpLeg -0.511006 8.236916 1.870789
LeftLeg -7.161244 -0.000000 0.000000
LeftFoot -19.784677 26.911381 -12.114301
LeftToeBase 27.205437 -0.000000 -0.000000
RightUpLeg -1.537790 -13.219115 -0.103103
RightLeg -4.255935 -0.000000 0.000000
RightFoot -20.182748 -22.516845 16.432495
RightToeBase 25.277040 -0.000000 -0.000000
610
root 18.718152 35.465207 -21.476983 -170.827600 -3.850719 -178.956649
Spine -18.589507 -0.740760 1.094039
Head 7.965999 -1.820748 -0.580399
LeftShoulder -12.050326 -38.163446 23.798705
LeftArm 6.761718 8.969601 -4.147457
LeftForeArm 19.469118 0.000000 -1.793191
LeftHand -8.072936 -0.000000 -7.808944
LeftHandThumb1 -26.253704 0.000000 33.147579
RightShoulder -11.807272 1.004055 -14.118458
RightArm 9.015000 34.642136 5.707384
RightForeArm -42.796579 -0.000000 4.447873
RightHand -6.706695 0.000000 14.929012
RightHandThumb1 -24.326973 -0.000000 -32.862282
LeftUpLeg -0.531016 8.237492 1.867041
LeftLeg -7.166792 -0.000000 0.000000
LeftFoot -19.771483 26.916879 -12.098731
LeftToeBase 27.203210 -0.000000 -0.000000
RightUpLeg -1.545822 -13.238385 -0.096929
RightLeg -4.285039 -0.000000 0.000000
RightFoot -20.166059 -22.507530 16.420778
RightToeBase 25.302534 -0.000000 -0.000000
611
root 18.719216 35.465057 -21.479549 -170.797489 -3.850313 -178.961425
Spine -18.616512 -0.738734 1.090627
Head 7.924533 -1.836201 -0.565933
LeftShoulder -12.031982 -38.131382 23.781587
LeftArm 6.769909 8.947613 -4.164240
LeftForeArm 19.416692 -0.000000 -1.808254
LeftHand -8.121874 -0.000000 -7.771578
LeftHandThumb1 -26.253704 0.000000 33.147579
RightShoulder -11.805831 1.017948 -14.117235
RightArm 9.017570 34.624350 5.721785
RightForeArm -42.816233 -0.000000 4.450677
RightHand -6.752181 -0.000000 14.932176
RightHandThumb1 -24.326973 -0.000000 -32.862282
LeftUpLeg -0.557278 8.236308 1.859113
LeftLeg -7.167380 -0.000000 0.000000
LeftFoot -19.779566 26.924997 -12.118382
LeftToeBase 27.180839 -0.000000 -0.000000
RightUpLeg -1.567167 -13.257842 -0.093272
RightLeg -4.295699 -0.000000 0.000000
RightFoot -20.156499 -22.494277 16.400853
RightToeBase 25.299599 -0.000000 -0.000000
612
root 18.720901 35.464488 -21.483491 -170.778848 -3.863026 -178.958751
Spine -18.626986 -0.755891 1.092598
Head 7.869559 -1.858353 -0.537811
LeftShoulder -12.036430 -38.122600 23.788781
LeftArm 6.781731 8.926532 -4.179890
LeftForeArm 19.402785 -0.000000 -1.824476
LeftHand -8.135443 -0.000000 -7.767723
LeftHandThumb1 -26.253704 0.000000 33.147579
RightShoulder -11.810631 1.016916 -14.099209
RightArm 9.036049 34.580199 5.727398
RightForeArm -42.632357 -0.000000 4.447371
RightHand -6.730600 -0.000000 14.886974
RightHandThumb1 -24.326973 -0.000000 -32.862282
LeftUpLeg -0.567623 8.217346 1.866278
LeftLeg -7.176153 -0.000000 0.000000
LeftFoot -19.774825 26.931841 -12.109158
LeftToeBase 27.208794 -0.000000 -0.000000
RightUpLeg -1.568305 -13.287119 -0.080908
RightLeg -4.317452 -0.000000 0.000000
RightFoot -20.150927 -22.479500 16.407429
RightToeBase 25.270801 -0.000000 -0.000000
